<?xml version="1.0" encoding="UTF-8" standalone="no"?>
<!-- Created with Inkscape (http://www.inkscape.org/) -->

<svg
   xmlns:dc="http://purl.org/dc/elements/1.1/"
   xmlns:cc="http://creativecommons.org/ns#"
   xmlns:rdf="http://www.w3.org/1999/02/22-rdf-syntax-ns#"
   xmlns:svg="http://www.w3.org/2000/svg"
   xmlns="http://www.w3.org/2000/svg"
   xmlns:sodipodi="http://sodipodi.sourceforge.net/DTD/sodipodi-0.dtd"
   xmlns:inkscape="http://www.inkscape.org/namespaces/inkscape"
   id="svg3398"
   version="1.1"
   inkscape:version="0.91 r13725"
   width="330"
   height="330"
   viewBox="0 0 330 330"
   sodipodi:docname="robo.svg"
   inkscape:export-filename="/home/angus/Documents/ornico/get_date/robo_Colour.png"
   inkscape:export-xdpi="90"
   inkscape:export-ydpi="90">
  <metadata
     id="metadata3404">
    <rdf:RDF>
      <cc:Work
         rdf:about="">
        <dc:format>image/svg+xml</dc:format>
        <dc:type
           rdf:resource="http://purl.org/dc/dcmitype/StillImage" />
        <dc:title />
      </cc:Work>
    </rdf:RDF>
  </metadata>
  <defs
     id="defs3402" />
  <sodipodi:namedview
     pagecolor="#ffffff"
     bordercolor="#666666"
     borderopacity="1"
     objecttolerance="10"
     gridtolerance="10"
     guidetolerance="10"
     inkscape:pageopacity="0"
     inkscape:pageshadow="2"
     inkscape:window-width="1855"
     inkscape:window-height="1056"
     id="namedview3400"
     showgrid="false"
     fit-margin-top="0"
     fit-margin-left="0"
     fit-margin-right="0"
     fit-margin-bottom="0"
     inkscape:zoom="2.4506666"
     inkscape:cx="-26.09395"
     inkscape:cy="156.95052"
     inkscape:window-x="65"
     inkscape:window-y="24"
     inkscape:window-maximized="1"
     inkscape:current-layer="svg3398"
     borderlayer="false"
     inkscape:showpageshadow="false"
     showborder="true" />
  <path
     style="fill:#ff7f2a;fill-opacity:1"
     d="m 148.59227,303.00713 c -41.88782,-4.43646 -70.979514,-25.17233 -85.332636,-60.82306 -6.38844,-15.86779 -6.90989,-15.40739 13.02414,-11.49925 83.170646,16.30591 158.731706,3.33161 231.802466,-39.80194 2.54585,-1.5028 -0.51088,22.4719 -4.32185,33.89754 -17.84025,53.48653 -82.23814,85.95135 -155.17211,78.22671 z M 109.4475,229.70894 C 56.955564,225.95124 52.538624,222.57322 52.599234,186.23198 52.748794,96.557864 188.6227,42.026102 256.63276,104.34496 c 19.84539,18.1847 54.91684,76.15046 48.82135,80.69147 -41.13596,30.64536 -124.98836,49.75645 -196.00661,44.67251 z m 36.61883,-37.6822 c 37.69597,-19.50536 25.40227,-75.53758 -16.61883,-75.74533 -45.299664,-0.22395 -57.847526,60.07543 -16.00943,76.93407 8.37852,3.37611 24.97478,2.77146 32.62826,-1.18874 z m 102.63733,-25.13567 c 23.12614,-6.63249 25.52949,-38.92813 3.57943,-48.09944 -13.69062,-5.7203 -29.9301,1.96225 -34.14428,16.15291 -5.6678,19.08558 11.7889,37.33139 30.56485,31.94653 z M 37.025064,186.88649 c -5.45734,-1.82276 -10.15723,-4.01852 -10.44421,-4.87946 -0.88971,-2.66914 2.33593,-21.62135 4.77037,-28.02829 2.88066,-7.58129 -3.42327,-19.13607 -9.59497,-17.58707 -1.69871,0.42635 -5.16311,-0.0672 -7.69866,-1.09678 -2.53555,-1.02957 -6.2856409,-2.37426 -8.3335309,-2.9882 -7.25041,-2.1736 -8.0512,-9.79671 -1.53979,-14.65817 6.0076209,-4.48534 14.5620009,2.22155 12.6335609,9.90507 -0.74331,2.96159 -0.55895,3.05338 6.13265,3.05338 6.899,0 6.899,0 9.62202,5.625 3.33012,6.87911 3.76994,6.90935 8.16899,0.56152 3.72042,-5.36856 17.48013,-18.68652 19.30635,-18.68652 6.14301,0 8.65014,6.71271 4.59826,12.31156 -11.06164,15.28485 -14.22124,23.98104 -16.23103,44.67277 -1.46757,15.10932 -1.46757,15.10932 -11.39001,11.79519 z M 298.9558,150.91948 c -4.97936,-10.31987 -15.81757,-25.57654 -25.75166,-36.24995 -21.28059,-22.864326 1.84424,-30.491666 24.13535,-7.96064 10.515,10.62819 13.98301,9.9148 13.98301,-2.87635 0,-4.442916 0.56456,-8.426946 1.25459,-8.853406 0.69002,-0.42645 0.93947,-2.03087 0.55435,-3.56537 -1.79164,-7.13845 8.33934,-12.24902 14.45884,-7.29375 6.30018,5.10158 0.42286,16.356016 -7.61909,14.58971 -4.21741,-0.9263 -5.74454,2.621526 -4.34335,10.090526 0.72471,3.86307 0.34426,4.88101 -2.98743,7.99328 -4.71762,4.40693 -4.9463,2.91125 2.33717,15.28618 3.3853,5.75176 6.33842,11.11731 6.5625,11.92346 0.35983,1.29454 -16.58001,12.85381 -18.83696,12.85381 -0.48535,0 -2.17165,-2.67188 -3.74732,-5.9375 z M 130.57246,79.875504 c -1.86607,-4.46612 -1.84672,-4.86165 0.31931,-6.528267 5.0281,-3.86879 17.9824,-9.119015 27.38938,-11.10059 5.45399,-1.148882 10.03466,-2.152995 10.17927,-2.231361 1.52055,-0.824029 -2.07771,-6.105604 -5.15428,-7.565534 -14.54657,-6.9028 -7.27983,-29.28708 8.54393,-26.318524 12.89703,2.419497 15.41185,20.904533 3.5378,26.00434 -1.89221,0.812687 -3.62657,1.59679 -3.85415,1.742453 -3.61801,2.315737 3.40545,5.171555 14.41728,5.86223 13.66825,0.857287 25.52946,3.828562 24.799,6.21224 -0.25778,0.841217 -0.80764,3.076361 -1.22191,4.966986 -0.75321,3.437497 -0.75321,3.437497 -19.94067,3.437497 -25.12515,0 -37.64495,2.13514 -54.83423,9.35149 -1.7307,0.72658 -2.614,-0.0832 -4.18073,-3.83296 z"
     id="path3432"
     inkscape:connector-curvature="0"
     inkscape:export-xdpi="90"
     inkscape:export-ydpi="90" />
</svg>
